# xmcd
#
# Track frame offsets:
#	150
#	16777
#	35577
#	51646
#	69353
#	85166
#	99574
#	116364
#	131036
#	141626
#	160447
#	177784
#	192877
#	211521
#
# Disc length: 3060 seconds
#
# Revision: 1
# Processed by: cddbd v1.5.2PL0 Copyright (c) Steve Scherf et al.
# Submitted via: audiograbber 1.83.01
#
DISCID=c20bf20e
DTITLE=Dark Horses - Campfire Girls Dark Horses
DYEAR=2003
DGENRE=Country
TTITLE0=No More Hugs And Kisses From Loretta
TTITLE1=It Keeps Right On A Hurting
TTITLE2=Starting Over Again
TTITLE3=Five And Dime
TTITLE4=Please Don´t Play Anymore Hurtin´ Songs
TTITLE5=Dream House For Sale
TTITLE6=Honky Tonk Prison
TTITLE7=Country With Kick
TTITLE8=Abe Lincoln
TTITLE9=Sometimes It´s Wrong To Be Right
TTITLE10=So Long
TTITLE11=I Dedicate All Of My Love To You
TTITLE12=Holding On For Dear Life
TTITLE13=Someone I Used To Know
EXTD=
EXTT0=
EXTT1=
EXTT2=
EXTT3=
EXTT4=
EXTT5=
EXTT6=
EXTT7=
EXTT8=
EXTT9=
EXTT10=
EXTT11=
EXTT12=
EXTT13=
PLAYORDER=
